<svg width="24" height="24" viewBox="0 0 24 24" fill="none" xmlns="http://www.w3.org/2000/svg">
<g opacity="0.6">
<path fill-rule="evenodd" clip-rule="evenodd" d="M11.2929 13L6.14645 7.85355C5.95118 7.65829 5.95118 7.34171 6.14645 7.14645C6.34171 6.95118 6.65829 6.95118 6.85355 7.14645L12 12.2929L17.1464 7.14645C17.3417 6.95118 17.6583 6.95118 17.8536 7.14645C18.0488 7.34171 18.0488 7.65829 17.8536 7.85355L12.7071 13L17.8536 18.1464C18.0488 18.3417 18.0488 18.6583 17.8536 18.8536C17.6583 19.0488 17.3417 19.0488 17.1464 18.8536L12 13.7071L6.85355 18.8536C6.65829 19.0488 6.34171 19.0488 6.14645 18.8536C5.95118 18.6583 5.95118 18.3417 6.14645 18.1464L11.2929 13Z" fill="#5B6372"/>
</g>
</svg>
