<svg width="24" height="24" viewBox="0 0 24 24" fill="none" xmlns="http://www.w3.org/2000/svg">
<path fill-rule="evenodd" clip-rule="evenodd" d="M15.8971 10.6519V5.96133L11.5 3.42265L7.10291 5.96133V10.6519L3.10291 12.9613V18.0387L7.50002 20.5774L11.5 18.268L15.5 20.5774L19.8971 18.0387V12.9613L15.8971 10.6519ZM4.10291 17.4613V13.6347L7.00002 15.2902V19.134L4.10291 17.4613ZM8.00002 15.2902V19.134L10.8971 17.4613V13.6347L8.00002 15.2902ZM9.97811 13.0081L7.50002 11.5774L5.02193 13.0081L7.50002 14.4241L9.97811 13.0081ZM8.10291 10.4613V6.63467L11 8.29016V12.134L8.10291 10.4613ZM12 12.134V8.29017L14.8971 6.63467V10.4613L12 12.134ZM11.5 7.42413L9.02193 6.00808L11.5 4.57735L13.9781 6.00808L11.5 7.42413ZM13.0219 13.0081L15.5 14.4241L17.9781 13.0081L15.5 11.5774L13.0219 13.0081ZM16 15.2902V19.134L18.8971 17.4613V13.6347L16 15.2902ZM15 19.134V15.2902L12.1029 13.6347V17.4613L15 19.134Z" fill="#5B6372"/>
</svg>
