<svg width="200" height="24" viewBox="0 0 200 24" fill="none" xmlns="http://www.w3.org/2000/svg">
<path d="M7.25129 10.4238C7.25129 11.3633 6.92967 12.0869 6.28645 12.5947C5.64745 13.0983 4.73127 13.3501 3.53791 13.3501H2.44611V17H1.36701V7.71973H3.77277C6.09178 7.71973 7.25129 8.62109 7.25129 10.4238ZM2.44611 12.4233H3.4173C4.37369 12.4233 5.06558 12.2689 5.49299 11.96C5.9204 11.651 6.1341 11.1559 6.1341 10.4746C6.1341 9.861 5.93309 9.40397 5.53107 9.10352C5.12906 8.80306 4.50275 8.65283 3.65217 8.65283H2.44611V12.4233ZM14.5262 13.5151C14.5262 14.6493 14.2406 15.5358 13.6693 16.1748C13.098 16.8096 12.3088 17.127 11.3016 17.127C10.6795 17.127 10.1273 16.981 9.64486 16.689C9.16244 16.397 8.79005 15.978 8.52768 15.4321C8.26531 14.8862 8.13412 14.2472 8.13412 13.5151C8.13412 12.381 8.41765 11.4987 8.98471 10.8682C9.55176 10.2334 10.3389 9.91602 11.346 9.91602C12.3193 9.91602 13.0916 10.2397 13.6629 10.8872C14.2385 11.5347 14.5262 12.4106 14.5262 13.5151ZM9.22592 13.5151C9.22592 14.4038 9.40365 15.0809 9.75912 15.5464C10.1146 16.0119 10.6372 16.2446 11.327 16.2446C12.0168 16.2446 12.5394 16.014 12.8949 15.5527C13.2546 15.0872 13.4344 14.408 13.4344 13.5151C13.4344 12.6307 13.2546 11.96 12.8949 11.5029C12.5394 11.0417 12.0125 10.811 11.3143 10.811C10.6245 10.811 10.104 11.0374 9.75277 11.4902C9.40154 11.943 9.22592 12.618 9.22592 13.5151ZM21.5409 17L20.265 12.9185C20.1846 12.6688 20.0344 12.1017 19.8143 11.2173H19.7635C19.5943 11.9578 19.4462 12.5291 19.3192 12.9312L18.0052 17H16.7865L14.8885 10.043H15.993C16.4416 11.7907 16.7823 13.1216 17.015 14.0356C17.252 14.9497 17.3874 15.5654 17.4213 15.8828H17.472C17.5186 15.6416 17.5926 15.3306 17.6942 14.9497C17.8 14.5646 17.891 14.2599 17.9671 14.0356L19.243 10.043H20.3856L21.6297 14.0356C21.8667 14.7635 22.0275 15.375 22.1122 15.8701H22.1629C22.1799 15.7178 22.2243 15.4829 22.2963 15.1655C22.3724 14.8481 22.8146 13.1406 23.6229 10.043H24.7147L22.7914 17H21.5409ZM28.3969 17.127C27.3685 17.127 26.556 16.8138 25.9594 16.1875C25.3669 15.5612 25.0707 14.6916 25.0707 13.5786C25.0707 12.4572 25.3457 11.5664 25.8959 10.9062C26.4502 10.2461 27.1929 9.91602 28.1239 9.91602C28.9957 9.91602 29.6854 10.2038 30.1932 10.7793C30.7011 11.3506 30.955 12.106 30.955 13.0454V13.7119H26.1625C26.1836 14.5286 26.3889 15.1486 26.7782 15.5718C27.1718 15.995 27.724 16.2065 28.4349 16.2065C29.184 16.2065 29.9245 16.05 30.6566 15.7368V16.6763C30.2842 16.8371 29.9309 16.9513 29.5966 17.019C29.2665 17.091 28.8666 17.127 28.3969 17.127ZM28.1112 10.7983C27.5526 10.7983 27.1062 10.9803 26.7719 11.3442C26.4418 11.7082 26.2471 12.2118 26.1879 12.855H29.8251C29.8251 12.1906 29.677 11.6828 29.3807 11.3315C29.0845 10.9761 28.6613 10.7983 28.1112 10.7983ZM35.4115 9.91602C35.7204 9.91602 35.9976 9.94141 36.2431 9.99219L36.0971 10.9697C35.8093 10.9062 35.5554 10.8745 35.3354 10.8745C34.7725 10.8745 34.2901 11.103 33.8881 11.5601C33.4903 12.0171 33.2914 12.5863 33.2914 13.2676V17H32.2377V10.043H33.1073L33.2279 11.3315H33.2787C33.5368 10.8787 33.8479 10.5296 34.2118 10.2842C34.5757 10.0387 34.9757 9.91602 35.4115 9.91602ZM39.9633 17.127C38.935 17.127 38.1225 16.8138 37.5258 16.1875C36.9334 15.5612 36.6371 14.6916 36.6371 13.5786C36.6371 12.4572 36.9122 11.5664 37.4623 10.9062C38.0167 10.2461 38.7594 9.91602 39.6904 9.91602C40.5621 9.91602 41.2519 10.2038 41.7597 10.7793C42.2675 11.3506 42.5214 12.106 42.5214 13.0454V13.7119H37.7289C37.7501 14.5286 37.9553 15.1486 38.3447 15.5718C38.7382 15.995 39.2905 16.2065 40.0014 16.2065C40.7504 16.2065 41.491 16.05 42.2231 15.7368V16.6763C41.8507 16.8371 41.4973 16.9513 41.163 17.019C40.8329 17.091 40.433 17.127 39.9633 17.127ZM39.6777 10.7983C39.1191 10.7983 38.6726 10.9803 38.3383 11.3442C38.0082 11.7082 37.8136 12.2118 37.7543 12.855H41.3915C41.3915 12.1906 41.2434 11.6828 40.9472 11.3315C40.651 10.9761 40.2278 10.7983 39.6777 10.7983ZM48.5395 16.0669H48.4824C47.9957 16.7736 47.2678 17.127 46.2988 17.127C45.3889 17.127 44.6801 16.8159 44.1723 16.1938C43.6687 15.5718 43.4169 14.6873 43.4169 13.5405C43.4169 12.3937 43.6708 11.5029 44.1787 10.8682C44.6865 10.2334 45.3932 9.91602 46.2988 9.91602C47.2425 9.91602 47.9661 10.2588 48.4697 10.9443H48.5522L48.5078 10.4429L48.4824 9.9541V7.12305H49.5361V17H48.6791L48.5395 16.0669ZM46.4321 16.2446C47.1515 16.2446 47.672 16.05 47.9936 15.6606C48.3194 15.2671 48.4824 14.6344 48.4824 13.7627V13.5405C48.4824 12.5545 48.3173 11.8521 47.9872 11.4331C47.6614 11.0099 47.1388 10.7983 46.4194 10.7983C45.8015 10.7983 45.3276 11.0396 44.9975 11.522C44.6717 12.0002 44.5087 12.6772 44.5087 13.5532C44.5087 14.4419 44.6717 15.1126 44.9975 15.5654C45.3233 16.0182 45.8015 16.2446 46.4321 16.2446ZM57.3511 9.92871C58.2651 9.92871 58.9739 10.2419 59.4775 10.8682C59.9853 11.4902 60.2392 12.3726 60.2392 13.5151C60.2392 14.6577 59.9832 15.5464 59.4712 16.1812C58.9634 16.8117 58.2567 17.127 57.3511 17.127C56.8983 17.127 56.4835 17.0444 56.1069 16.8794C55.7345 16.7101 55.4214 16.452 55.1675 16.105H55.0913L54.8691 17H54.1138V7.12305H55.1675V9.52246C55.1675 10.0599 55.1505 10.5423 55.1167 10.9697H55.1675C55.6583 10.2757 56.3862 9.92871 57.3511 9.92871ZM57.1987 10.811C56.4793 10.811 55.9609 11.0184 55.6435 11.4331C55.3262 11.8436 55.1675 12.5376 55.1675 13.5151C55.1675 14.4927 55.3304 15.193 55.6562 15.6162C55.9821 16.0352 56.5047 16.2446 57.2241 16.2446C57.8716 16.2446 58.354 16.0098 58.6714 15.54C58.9888 15.0661 59.1474 14.3869 59.1474 13.5024C59.1474 12.5968 58.9888 11.9219 58.6714 11.4775C58.354 11.0332 57.8631 10.811 57.1987 10.811ZM60.4619 10.043H61.5918L63.1152 14.0103C63.4495 14.9159 63.6569 15.5697 63.7373 15.9717H63.7881C63.8431 15.7559 63.9574 15.3877 64.1309 14.8672C64.3086 14.3424 64.8841 12.7344 65.8574 10.043H66.9873L63.9976 17.9648C63.7013 18.7477 63.3543 19.3021 62.9565 19.6279C62.563 19.958 62.0785 20.123 61.5029 20.123C61.1813 20.123 60.8639 20.0871 60.5508 20.0151V19.1709C60.7835 19.2217 61.0438 19.2471 61.3315 19.2471C62.0552 19.2471 62.5715 18.8408 62.8804 18.0283L63.2676 17.0381L60.4619 10.043Z" fill="#3A4356"/>
<path fill-rule="evenodd" clip-rule="evenodd" d="M82 9.46105L94.8908 4.73053L82 0V9.46105ZM118.33 19.4177H120.984V6.65728H118.33V19.4177ZM102.736 19.4173V16.7312H113.354V14.0451H102.736V6.65747H116.008V9.34358H105.391V11.3589H116.008V19.4173H102.736ZM157.152 10.5196L165.116 19.4173H167.771V6.65747H165.116V15.5552L157.152 6.65747H154.499V19.4173H157.152V10.5196ZM138.853 9.34339H152.175V6.65728H138.853V9.34339ZM152.175 14.0442H138.853V11.3581H152.175V14.0442ZM138.853 19.4177H152.175V16.7316H138.853V19.4177ZM199.087 9.34402H185.765V6.65792H199.087V9.34402ZM185.765 14.0442H199.087V11.3581H185.765V14.0442ZM199.087 19.4177H185.765V16.7316H199.087V19.4177ZM123.308 19.4173V16.7312H133.926V14.0451H123.308V6.65747H136.58V9.34358H125.962V11.3589H136.58V19.4173H123.308ZM170.045 16.7312V19.4173H183.318V11.3589H172.699V9.34358H183.318V6.65747H170.045V14.0451H180.662V16.7312H170.045ZM94.8908 17.8516L82 22.5828V13.1217L94.8908 17.8516ZM86.3306 11.3967L99.2202 16.1272V6.66676L86.3306 11.3967ZM99.2211 23.4147L93.8513 21.4448L99.2211 19.4749V23.4147Z" fill="#2C3342"/>
</svg>
